<svg width="18" height="20" viewBox="0 0 18 20" fill="none" xmlns="http://www.w3.org/2000/svg">
<g id="add-money-wallet-icon 1" clip-path="url(#clip0_739_3922)">
<path id="Vector" fill-rule="evenodd" clip-rule="evenodd" d="M13.399 9.9105H15.9623V9.40061C15.8157 8.8427 15.5825 8.46439 15.2799 8.23404C14.9784 8.00447 14.5861 7.90609 14.1262 7.9096L3.35924 7.91194C3.10063 7.91194 2.89101 7.69643 2.89101 7.43016C2.89101 7.16429 3.10063 6.94878 3.35924 6.94878L4.85924 6.94917C4.69937 6.69305 4.56456 6.41937 4.45709 6.13124C4.39747 5.96844 4.34582 5.80368 4.30329 5.63463H2.53405C2.09544 5.63463 1.69595 5.81969 1.4062 6.11758C1.11684 6.41507 0.936835 6.8258 0.936835 7.27712V17.3952C0.936835 17.8458 1.11722 18.2565 1.40696 18.554C1.69557 18.853 2.09544 19.0377 2.53405 19.0377H14.3647C14.8029 19.0377 15.2024 18.8523 15.4925 18.5548C15.7819 18.2565 15.9623 17.8454 15.9623 17.3952V15.9518H13.399C12.6072 15.9518 11.8876 15.6188 11.3673 15.0835L11.3184 15.0289C10.8262 14.4964 10.5228 13.7792 10.5228 12.9948V12.8675C10.5228 12.0574 10.8463 11.3187 11.3673 10.7819L11.3723 10.7768C11.8944 10.2424 12.6118 9.9105 13.399 9.9105ZM16.8991 9.93783C17.1691 9.99327 17.411 10.1307 17.5986 10.3236C17.8458 10.5777 18 10.9299 18 11.3176V14.4846C18 14.8856 17.8394 15.2522 17.5796 15.5196C17.3931 15.7137 17.1573 15.8499 16.8991 15.9128V17.3952C16.8991 18.1093 16.6128 18.7605 16.1537 19.2325L16.1518 19.2345C15.6927 19.7065 15.0592 20.0009 14.3647 20.0009H2.53405C1.83987 20.0009 1.2057 19.7069 0.745443 19.2341C0.28557 18.7633 0 18.112 0 17.3952V7.27712C0 6.55992 0.28519 5.90831 0.743924 5.43629C1.20266 4.96467 1.83646 4.67146 2.53405 4.67146H4.17C4.1681 4.61993 4.16734 4.568 4.16734 4.51569C4.16734 3.27025 4.65949 2.14077 5.45848 1.31776C7.16924 -0.436 9.9657 -0.439904 11.6757 1.31776L11.7178 1.365C12.4891 2.18098 12.9642 3.2925 12.9642 4.51569C12.9642 4.568 12.963 4.61993 12.9615 4.67146H14.3647C15.06 4.67146 15.6934 4.96545 16.1529 5.43786C16.6132 5.90909 16.8991 6.56148 16.8991 7.27712V9.93783ZM12.2719 6.94995H14.1137C14.7748 6.9437 15.3573 7.09831 15.8362 7.46335C15.8791 7.49615 15.9213 7.5305 15.9623 7.56642V7.27712C15.9623 6.82736 15.7819 6.41625 15.4918 6.11797C15.2035 5.81929 14.8044 5.63463 14.3647 5.63463H12.8278C12.7861 5.80407 12.7344 5.97 12.6744 6.13124C12.5673 6.42015 12.4322 6.69344 12.2719 6.94995ZM7.84899 2.52689C7.84747 2.3391 7.83038 2.2044 8.05747 2.20792L8.98633 2.2169C9.22291 2.21573 9.28595 2.29303 9.28329 2.52103V3.42525H10.1571C10.3397 3.42407 10.4704 3.40651 10.467 3.63959L10.4582 4.59455C10.4594 4.83817 10.3846 4.90298 10.1624 4.90025H9.28329V5.80368C9.28595 6.03207 9.22291 6.10938 8.98633 6.10781L8.05747 6.11679C7.83038 6.12031 7.84747 5.986 7.84899 5.79821V4.90025H6.96949C6.74734 4.90298 6.67215 4.83778 6.67367 4.59455L6.66494 3.63959C6.66114 3.40651 6.79215 3.42407 6.97481 3.42525H7.84899V2.52689ZM8.56595 0.760245C10.5832 0.760245 12.2184 2.44139 12.2184 4.51569C12.2184 5.48002 11.8644 6.35964 11.283 7.02452H5.8481C5.26671 6.35964 4.91316 5.48002 4.91316 4.51569C4.91316 2.44139 6.54835 0.760245 8.56595 0.760245ZM13.6363 11.7236C13.9451 11.7236 14.2253 11.8528 14.4281 12.0617C14.6324 12.2718 14.7581 12.5599 14.7581 12.8773C14.7581 13.1943 14.6324 13.4824 14.4296 13.6913C14.2253 13.9014 13.9451 14.0306 13.6363 14.0306C13.328 14.0306 13.0481 13.9014 12.8446 13.6929L12.8423 13.6905C12.6395 13.4813 12.5146 13.1935 12.5146 12.8773C12.5146 12.5603 12.6403 12.2721 12.843 12.0633L12.8453 12.0609C13.0485 11.8528 13.3284 11.7236 13.6363 11.7236Z" fill="white"/>
</g>
<defs>
<clipPath id="clip0_739_3922">
<rect width="18" height="20" fill="white"/>
</clipPath>
</defs>
</svg>
