<svg width="23" height="19" viewBox="0 0 23 19" fill="none" xmlns="http://www.w3.org/2000/svg">
<g id="history-icon 1" clip-path="url(#clip0_739_4090)">
<path id="Vector" d="M5.32345 9.82027C5.32345 9.8396 5.32345 9.85893 5.32345 9.87651L6.1545 9.09275C6.27028 8.98336 6.40786 8.89646 6.55941 8.83699C6.71095 8.77753 6.87349 8.74667 7.03774 8.74618C7.20199 8.74569 7.36473 8.77558 7.51667 8.83414C7.66862 8.8927 7.80679 8.97878 7.9233 9.08748C8.03981 9.19617 8.13238 9.32535 8.19571 9.46763C8.25905 9.60991 8.29192 9.76251 8.29244 9.91671C8.29296 10.0709 8.26113 10.2237 8.19875 10.3664C8.13638 10.509 8.04469 10.6387 7.92892 10.7481L5.07825 13.4456C4.84824 13.6622 4.53741 13.786 4.21171 13.791C3.88601 13.7959 3.57109 13.6815 3.33378 13.472L0.425092 11.0715C0.205265 10.8596 0.078704 10.5777 0.070715 10.2821C0.0627261 9.98641 0.173898 9.69882 0.382002 9.47679C0.590106 9.25477 0.879805 9.11468 1.19317 9.08453C1.50654 9.05438 1.82048 9.13639 2.07223 9.31417L2.82093 9.93626C2.72592 8.02038 3.24771 6.12206 4.31832 4.4886C5.3805 2.86903 6.94933 1.5968 8.81051 0.845708C9.47417 0.578611 10.1636 0.372056 10.8694 0.228893C13.1295 -0.249177 15.4968 0.0366356 17.5545 1.03601C19.6122 2.03539 21.2284 3.68427 22.1186 5.69236C22.4029 6.31487 22.6205 6.96241 22.7681 7.6254C23.1275 9.19712 23.043 10.8297 22.5229 12.3613C21.9947 13.886 21.0575 15.2573 19.8014 16.3434C18.6019 17.4063 17.1566 18.1943 15.5787 18.6455C14.3109 19.0021 12.9753 19.0942 11.6656 18.9155C10.3558 18.7367 9.10349 18.2913 7.9963 17.6104C7.71806 17.441 7.52289 17.1747 7.45374 16.8702C7.38459 16.5657 7.44712 16.2479 7.62757 15.9867C7.80801 15.7254 8.0916 15.5422 8.41595 15.4773C8.74029 15.4124 9.07882 15.4711 9.35706 15.6405C9.68459 15.8449 10.031 16.0214 10.3921 16.1677C10.7369 16.3057 11.0939 16.4151 11.459 16.4945C12.5858 16.743 13.7621 16.7103 14.8712 16.3996C16.0814 16.0489 17.1885 15.4396 18.1056 14.6195C19.0522 13.8031 19.7571 12.7701 20.1514 11.6215C20.5412 10.4809 20.6057 9.26421 20.3386 8.09284C20.2228 7.58097 20.0549 7.08076 19.837 6.59913C19.1739 5.0935 17.9639 3.8573 16.4217 3.11021C14.8796 2.36312 13.1053 2.15353 11.4141 2.51866C10.8669 2.62788 10.3327 2.788 9.81938 2.99665C8.42565 3.55173 7.25022 4.49992 6.45585 5.70993C5.64658 6.9419 5.25192 8.37441 5.32345 9.82027ZM11.3842 5.97529C11.3842 5.69052 11.5046 5.41742 11.7191 5.21605C11.9336 5.01469 12.2245 4.90157 12.5278 4.90157C12.8311 4.90157 13.122 5.01469 13.3365 5.21605C13.5509 5.41742 13.6714 5.69052 13.6714 5.97529V9.31417L16.4585 10.7675C16.723 10.9059 16.9182 11.1373 17.0011 11.4109C17.0839 11.6844 17.0476 11.9776 16.9002 12.226C16.7528 12.4744 16.5062 12.6577 16.2149 12.7355C15.9236 12.8132 15.6112 12.7792 15.3466 12.6407L12.058 10.9239C11.8572 10.8389 11.6868 10.7014 11.5673 10.5278C11.4478 10.3541 11.3842 10.1518 11.3842 9.94504V5.97529Z" fill="black"/>
</g>
<defs>
<clipPath id="clip0_739_4090">
<rect width="23" height="19" fill="white"/>
</clipPath>
</defs>
</svg>
