<svg width="26" height="29" viewBox="0 0 26 29" fill="none" xmlns="http://www.w3.org/2000/svg">
<path d="M10.4402 23.6269V19.8389C10.4402 18.879 11.2207 18.0992 12.1875 18.0932H15.7375C16.7086 18.0932 17.4958 18.8748 17.4958 19.8389V19.8389V23.6159C17.4958 24.4484 18.1724 25.125 19.0109 25.1311H21.4329C22.564 25.134 23.6498 24.6899 24.4507 23.8969C25.2516 23.1038 25.7016 22.0269 25.7016 20.9039V10.144C25.7016 9.23683 25.2966 8.37635 24.5957 7.79435L16.3678 1.26151C14.9296 0.118847 12.8754 0.15576 11.4797 1.34935L3.42875 7.79435C2.69475 8.35919 2.25605 9.22222 2.23438 10.144V20.893C2.23438 23.2336 4.14558 25.1311 6.50316 25.1311H8.8698C9.27353 25.134 9.66175 24.9768 9.94828 24.6944C10.2348 24.412 10.396 24.0277 10.3959 23.6269H10.4402Z" fill="#749000"/>
</svg>
