<svg width="30" height="24" viewBox="0 0 30 24" fill="none" xmlns="http://www.w3.org/2000/svg">
<g id="mechanic-icon 1" clip-path="url(#clip0_739_4118)">
<g id="Group">
<path id="Vector" fill-rule="evenodd" clip-rule="evenodd" d="M20.3027 4.63521L20.2979 4.6521C19.0259 4.41806 17.1899 4.29501 15.2539 4.31672C13.2959 4.33844 11.2256 4.50733 9.52148 4.85236L9.51904 4.84513C8.03223 -2.06751 22.2681 -1.08068 20.3027 4.63521ZM6.90186 22.9048C5.78857 23.7397 4.54102 24.4008 2.70752 23.7131C1.51855 23.2668 0.544434 22.2365 0 20.9384C4.73633 23.0593 6.43066 16.9718 0.822754 16.7884C2.53418 14.752 5.05859 14.7689 7.09961 16.2624C8.06396 16.967 8.60596 17.3217 9.1626 17.4761C9.46533 17.5653 9.77051 17.5822 10.1562 17.5822C11.46 17.5871 18.2886 17.4399 19.6704 17.4109C22.2729 17.3603 23.5889 13.4057 27.2925 14.8003C28.4814 15.2467 29.4556 16.2769 30 17.575C25.2637 15.4542 23.5693 21.5416 29.1772 21.725C27.4658 23.7614 24.9414 23.7445 22.9004 22.251C22.0068 21.5947 21.4429 20.8226 19.6777 20.8709C18.4546 20.9215 11.6382 21.0012 10.4126 21.0832C9.92432 21.1121 9.60205 21.1604 9.29443 21.2786C8.73779 21.4885 8.23486 21.9156 6.91895 22.9073L6.90186 22.9048ZM12.0337 12.1221C11.1694 12.7229 10.2637 12.9449 9.38232 13.1065L10.4248 16.0308C12.5513 16.0067 17.4927 15.9029 19.5166 15.8595L20.0146 15.8499L20.7837 13.1306C19.9976 13.051 19.2627 12.9907 18.689 12.6915C18.4302 12.5299 18.2007 12.3079 17.9907 12.0256L17.9541 11.4417C18.1592 11.2752 18.3545 11.0822 18.5229 10.865C18.9014 10.3969 19.0479 9.91439 19.2285 9.30396C19.2651 9.17367 19.3018 9.04579 19.3457 8.9155C19.7021 8.87931 20.0146 8.48361 20.2051 7.99381C20.3076 7.72117 20.3882 7.40992 20.4077 7.13727C20.437 6.85015 20.4077 6.58233 20.3052 6.40379C20.2246 6.25902 20.1001 6.16733 19.9341 6.15286C19.9219 6.0105 19.9878 5.70408 20.0757 5.38076C18.8721 5.16603 17.1216 5.05504 15.2612 5.07675C13.3496 5.09847 11.333 5.26254 9.67773 5.59792L9.83887 6.36036C9.71436 6.56303 9.68506 6.87911 9.72168 7.2169C9.7583 7.54745 9.86084 7.89248 10.0049 8.18201C10.1953 8.54875 10.4639 8.80934 10.7764 8.80934C10.8057 8.8962 10.8423 8.99029 10.8716 9.08198C11.1255 9.82271 11.3159 10.3849 11.7749 10.9181C11.9067 11.0774 12.0508 11.2197 12.2046 11.35L12.168 12.0039C12.124 12.0425 12.0801 12.0835 12.0337 12.1221ZM7.91992 13.3743C7.24609 13.5263 6.60645 13.7507 6.03027 14.2116C6.3501 14.3829 6.6626 14.5807 6.96533 14.8027C7.46582 15.1694 7.85644 15.4421 8.18604 15.6424C8.37891 15.7582 8.54248 15.8426 8.69385 15.9029C8.51074 14.8558 8.0542 13.869 7.91992 13.3743ZM23.4863 13.8328C23.103 13.6108 22.7026 13.4636 22.2974 13.3623C22.2095 13.7169 22.019 14.3539 21.8677 15.0633C22.0752 14.9113 22.2852 14.7472 22.4976 14.5807C22.8223 14.3274 23.147 14.0716 23.4863 13.8328ZM13.4619 2.4999H16.5381C16.6113 2.4999 16.6699 2.5578 16.6699 2.63019V3.33231C16.6699 3.40469 16.6113 3.4626 16.5381 3.4626H13.4619C13.3887 3.4626 13.3301 3.40469 13.3301 3.33231V2.63019C13.3301 2.5578 13.3887 2.4999 13.4619 2.4999ZM17.4902 11.6709C16.6675 12.2114 16.167 12.5106 15.1025 12.484C14.0674 12.4695 13.5278 12.1221 12.7002 11.6058C12.6416 15.0199 17.5757 15.2225 17.4902 11.6709ZM18.7231 9.19297C18.7671 9.04096 18.8184 8.88413 18.877 8.69594C18.8989 8.61631 18.9795 8.55841 19.0601 8.57288C19.2993 8.61631 19.541 8.27128 19.707 7.85387C19.8022 7.60294 19.8755 7.32788 19.8975 7.08419C19.9194 6.85498 19.8975 6.6523 19.8315 6.52925C19.7656 6.41102 19.5874 6.47858 19.4531 6.36277C18.7646 8.16995 12.749 8.98788 10.2881 6.5003C10.2002 6.63783 10.1855 6.88152 10.2148 7.15416C10.2515 7.44128 10.3394 7.75977 10.4688 8.0107C10.6226 8.30506 10.8179 8.50774 11.0156 8.45707C11.0962 8.43535 11.1841 8.47878 11.2134 8.55841C11.272 8.71765 11.3086 8.83829 11.3525 8.96134C12.6245 12.665 17.4731 12.9545 18.7231 9.19297Z" fill="#A7A7A7"/>
</g>
</g>
<defs>
<clipPath id="clip0_739_4118">
<rect width="30" height="24" fill="white"/>
</clipPath>
</defs>
</svg>
